<svg id="Capa_1" enable-background="new 0 0 511.996 511.996" height="512" viewBox="0 0 511.996 511.996" width="512" xmlns="http://www.w3.org/2000/svg"><g><path d="m349.188 224.938v124.15c0 17.15-13.91 31.06-31.07 31.06-8.58 0-16.34-3.48-21.96-9.1s-9.1-13.39-9.1-21.96v-124.15z" fill="#fd8087"/><path d="m333.128 376.288c-4.45 2.46-9.57 3.86-15.01 3.86-8.58 0-16.34-3.48-21.96-9.1s-9.1-13.39-9.1-21.96v-124.15h30v124.15c0 8.57 3.48 16.34 9.1 21.96 2.06 2.06 4.4 3.83 6.97 5.24z" fill="#fe646f"/><path d="m224.938 193.878v155.21c0 17.15-13.91 31.06-31.06 31.06-8.58 0-16.35-3.48-21.97-9.1s-9.1-13.39-9.1-21.96v-155.21z" fill="#fd8087"/><path d="m208.878 376.288c-4.44 2.46-9.56 3.86-15 3.86-8.58 0-16.35-3.48-21.97-9.1s-9.1-13.39-9.1-21.96v-155.21h30v155.21c0 8.57 3.48 16.34 9.1 21.96 2.06 2.06 4.4 3.83 6.97 5.24z" fill="#fe646f"/><path d="m162.808 69.628h62.13v124.25h-62.13z" fill="#f2fbff"/><path d="m162.808 69.628h30v124.25h-30z" fill="#dff6fd"/><path d="m162.811 7.5h62.125v31.062h-62.125z" fill="#fddeb0"/><path d="m287.06 7.5h62.125v31.062h-62.125z" fill="#fddeb0"/><path d="m162.808 7.498h30v31.06h-30z" fill="#ffbd86"/><path d="m287.058 7.498h30v31.06h-30z" fill="#ffbd86"/><path d="m147.28 38.562h93.187v31.062h-93.187z" fill="#5680a6"/><path d="m271.529 38.562h93.187v31.062h-93.187z" fill="#5680a6"/><path d="m147.278 38.558h30v31.07h-30z" fill="#497090"/><path d="m271.528 38.558h30v31.07h-30z" fill="#497090"/><path d="m69.625 473.383h62.125v31.113h-62.125z" fill="#fed2a4"/><path d="m380.232 473.383h62.125v31.113h-62.125z" fill="#fed2a4"/><path d="m466.434 473.383h-420.872c-3.866 0-7-3.134-7-7v-17.113c0-3.866 3.134-7 7-7h420.872c3.866 0 7 3.134 7 7v17.113c0 3.866-3.134 7-7 7z" fill="#fddeb0"/><path d="m95.558 473.388h-50c-3.86 0-7-3.14-7-7v-17.12c0-3.86 3.14-7 7-7h50c-3.86 0-7 3.14-7 7v17.12c0 3.86 3.14 7 7 7z" fill="#ffbd86"/><path d="m287.058 69.628h62.13v155.31h-62.13z" fill="#f2fbff"/><path d="m287.058 69.628h30v155.31h-30z" fill="#dff6fd"/><path d="m409.665 100.687h-310.04c-16.569 0-30 13.431-30 30v281.584c0 16.569 13.431 30 30 30h310.04c16.569 0 30-13.431 30-30v-281.584c0-16.569-13.432-30-30-30zm1.644 310.521h-310.622v-279.459h310.623v279.459z" fill="#c8effe"/><g><path d="m466.438 434.768h-26.79c4.719-6.272 7.52-14.064 7.52-22.5v-281.58c0-20.678-16.822-37.5-37.5-37.5h-52.98v-16.063h8.028c4.142 0 7.5-3.357 7.5-7.5v-31.062c0-4.143-3.358-7.5-7.5-7.5h-8.031v-23.563c0-4.143-3.358-7.5-7.5-7.5h-62.125c-4.142 0-7.5 3.357-7.5 7.5v23.563h-8.031c-4.142 0-7.5 3.357-7.5 7.5v31.063c0 4.143 3.358 7.5 7.5 7.5h8.029v16.063h-47.12v-16.064h8.029c4.142 0 7.5-3.357 7.5-7.5v-31.062c0-4.143-3.358-7.5-7.5-7.5h-8.031v-23.563c0-4.143-3.358-7.5-7.5-7.5h-62.125c-4.142 0-7.5 3.357-7.5 7.5v23.563h-8.031c-4.142 0-7.5 3.357-7.5 7.5v31.063c0 4.143 3.358 7.5 7.5 7.5h8.028v16.063h-55.68c-20.678 0-37.5 16.822-37.5 37.5v47.09c0 4.143 3.358 7.5 7.5 7.5s7.5-3.357 7.5-7.5v-47.09c0-12.406 10.093-22.5 22.5-22.5h310.04c12.407 0 22.5 10.094 22.5 22.5v281.579c0 12.406-10.093 22.5-22.5 22.5h-310.04c-12.407 0-22.5-10.094-22.5-22.5v-201.81c0-4.143-3.358-7.5-7.5-7.5s-7.5 3.357-7.5 7.5v201.81c0 8.436 2.801 16.228 7.52 22.5h-24.09c-7.995 0-14.5 6.505-14.5 14.5v17.12c0 7.995 6.505 14.5 14.5 14.5h16.566v23.608c0 4.143 3.358 7.5 7.5 7.5h62.125c4.142 0 7.5-3.357 7.5-7.5v-23.608h103.259c4.142 0 7.5-3.357 7.5-7.5s-3.358-7.5-7.5-7.5h-196.45v-16.12h419.88v16.12h-190.75c-4.142 0-7.5 3.357-7.5 7.5s3.358 7.5 7.5 7.5h97.544v23.608c0 4.143 3.358 7.5 7.5 7.5h62.125c4.142 0 7.5-3.357 7.5-7.5v-23.608h16.582c7.995 0 14.5-6.505 14.5-14.5v-17.12c-.001-7.996-6.506-14.5-14.501-14.5zm-171.878-419.768h47.125v16.063h-47.125zm-15.531 31.063h78.187v16.063h-78.187zm-108.717-31.063h47.125v16.063h-47.125zm-15.532 31.063h78.187v16.063h-78.187zm139.778 31.065h47.13v16.061h-47.13zm-124.25 0h47.13v16.061h-47.13zm-46.059 419.868h-47.124v-16.108h47.125v16.108zm310.607 0h-47.125v-16.108h47.125z"/><path d="m411.308 297.938c4.142 0 7.5-3.357 7.5-7.5v-158.69c0-4.143-3.358-7.5-7.5-7.5h-310.62c-4.142 0-7.5 3.357-7.5 7.5v279.46c0 4.143 3.358 7.5 7.5 7.5h310.62c4.142 0 7.5-3.357 7.5-7.5v-88.08c0-4.143-3.358-7.5-7.5-7.5s-7.5 3.357-7.5 7.5v80.58h-295.62v-264.46h47.12v209.84c0 21.04 17.533 38.561 38.57 38.561 21.262 0 38.56-17.298 38.56-38.561v-209.84h47.12v209.84c0 21.033 17.527 38.561 38.56 38.561 21.268 0 38.57-17.298 38.57-38.561v-209.84h47.12v151.19c0 4.143 3.358 7.5 7.5 7.5zm-217.43 74.71c-14.361-1.348-22.218-9.201-23.57-23.561v-147.713h47.13v147.714c0 12.991-10.569 23.56-23.56 23.56zm23.56-186.274h-47.13v-47.126h47.13zm100.68 186.274c-14.355-1.352-22.209-9.205-23.56-23.561v-116.651h47.13v116.652c0 12.991-10.573 23.56-23.57 23.56zm23.57-155.212h-47.13v-78.188h47.13z"/></g></g></svg>