<svg id="Capa_1" enable-background="new 0 0 511.99 511.99" height="512" viewBox="0 0 511.99 511.99" width="512" xmlns="http://www.w3.org/2000/svg"><g><path d="m365.244 100.684h-218.498c-8.284 0-15-6.716-15-15v-63.187c0-8.284 6.716-15 15-15h218.498c8.284 0 15 6.716 15 15v63.187c0 8.284-6.716 15-15 15z" fill="#9cf8d2"/><path d="m380.245 80.68v5c0 8.29-6.72 15-15 15h-218.5c-8.28 0-15-6.71-15-15v-63.18c0-8.29 6.72-15 15-15h35v58.18c0 8.29 6.72 15 15 15z" fill="#6cf5c2"/><path d="m162.808 100.684h186.374v31.062h-186.374z" fill="#c8effe"/><path d="m162.805 100.68h50v31.07h-50z" fill="#99e6fc"/><path d="m162.808 131.808-50.109 37.533c-7.563 5.665-12.015 14.562-12.015 24.011v281.142c0 16.569 13.431 30 30 30h250.623c16.569 0 30-13.431 30-30v-281.154c0-9.443-4.446-18.334-12-24l-50.125-37.593z" fill="#f2fbff"/><path d="m150.685 474.49c0 16.57 13.43 30 30 30h-50c-16.57 0-30-13.43-30-30v-281.14c0-9.45 4.45-18.34 12.01-24.01l50.11-37.53h50l-50.11 37.53c-7.56 5.67-12.01 14.56-12.01 24.01z" fill="#dff6fd"/><path d="m131.784 473.393v-279.491l41.385-30.998 165.65-.054 41.388 31.04v279.503z" fill="#c8effe"/><path d="m131.784 193.902 248.423-.012.072 248.475h-248.533z" fill="#fd8087"/><path d="m150.685 193.9v248.47h-18.94l.04-248.47z" fill="#fe646f"/><path d="m263.265 234.882 8.65-4.792c5.674-3.143 12.025-4.79 18.478-4.79 21.426 0 38.796 17.765 38.796 39.679v49.847c0 8.599-4.819 16.436-12.397 20.16-6.719 3.302-11.331 9.878-12.235 17.446l-5.743 48.046c-.636 6.326-5.846 11.135-12.064 11.135-6.124 0-11.287-4.669-12.036-10.886l-5.826-53.02c-.742-6.752-6.325-11.856-12.968-11.856-6.579 0-12.129 5.009-12.948 11.686l-6.704 54.664c-1.055 5.469-5.745 9.412-11.195 9.412-6.049 0-11.047-4.828-11.393-11.004l-6.165-48.306c-.957-7.496-5.551-13.991-12.213-17.265l-.104-.051c-7.578-3.724-12.397-11.562-12.397-20.16v-49.847c0-21.914 17.369-39.679 38.796-39.679h3.408c.345 0 .689.005 1.034.014 6.219.17 12.258 2.175 17.52 5.57l5.444 3.513c4.318 2.786 9.772 2.972 14.262.484z" fill="#f2fbff"/><path d="m233.675 400.61c.1 1.8.6 3.48 1.4 4.96-1.96 3.64-5.75 6.04-10 6.04-3.02 0-5.79-1.21-7.84-3.19s-3.38-4.72-3.56-7.81l-6.16-48.31c-.96-7.49-5.55-13.99-12.21-17.26l-.11-.05c-7.58-3.73-12.39-11.57-12.39-20.16v-49.85c0-21.92 17.37-39.68 38.79-39.68h3.41c.34 0 .69 0 1.03.01 2.36.07 4.7.4 6.97.97-17.29 3.99-30.2 19.8-30.2 38.7v49.85c0 8.59 4.81 16.43 12.39 20.16l.11.05c6.66 3.27 11.25 9.77 12.21 17.26z" fill="#dff6fd"/><g><g><path d="m193.871 77.122c-4.143 0-7.5-3.357-7.5-7.5v-31.062c0-4.143 3.357-7.5 7.5-7.5s7.5 3.357 7.5 7.5v31.063c0 4.142-3.357 7.499-7.5 7.499z"/></g><g><path d="m162.809 77.122c-4.143 0-7.5-3.357-7.5-7.5v-31.062c0-4.143 3.357-7.5 7.5-7.5s7.5 3.357 7.5 7.5v31.063c0 4.142-3.358 7.499-7.5 7.499z"/></g><g><path d="m224.933 77.122c-4.143 0-7.5-3.357-7.5-7.5v-31.062c0-4.143 3.357-7.5 7.5-7.5s7.5 3.357 7.5 7.5v31.063c0 4.142-3.358 7.499-7.5 7.499z"/></g><g><path d="m255.995 77.122c-4.143 0-7.5-3.357-7.5-7.5v-31.062c0-4.143 3.357-7.5 7.5-7.5s7.5 3.357 7.5 7.5v31.063c0 4.142-3.357 7.499-7.5 7.499z"/></g><g><path d="m287.058 77.122c-4.143 0-7.5-3.357-7.5-7.5v-31.062c0-4.143 3.357-7.5 7.5-7.5s7.5 3.357 7.5 7.5v31.063c0 4.142-3.358 7.499-7.5 7.499z"/></g><g><path d="m318.119 77.122c-4.143 0-7.5-3.357-7.5-7.5v-31.062c0-4.143 3.357-7.5 7.5-7.5s7.5 3.357 7.5 7.5v31.063c0 4.142-3.357 7.499-7.5 7.499z"/></g><g><path d="m349.182 77.122c-4.143 0-7.5-3.357-7.5-7.5v-31.062c0-4.143 3.357-7.5 7.5-7.5s7.5 3.357 7.5 7.5v31.063c0 4.142-3.358 7.499-7.5 7.499z"/></g><g><path d="m411.305 368.55c4.143 0 7.5-3.357 7.5-7.5v-167.71c0-11.741-5.607-22.956-15-30l-47.123-35.343v-19.817h8.563c12.406 0 22.5-10.094 22.5-22.5v-63.18c0-12.406-10.094-22.5-22.5-22.5h-61.84c-4.143 0-7.5 3.357-7.5 7.5s3.357 7.5 7.5 7.5h61.84c4.136 0 7.5 3.364 7.5 7.5v63.18c0 4.136-3.364 7.5-7.5 7.5h-218.5c-4.136 0-7.5-3.364-7.5-7.5v-63.18c0-4.136 3.364-7.5 7.5-7.5h123.97c4.143 0 7.5-3.357 7.5-7.5s-3.357-7.5-7.5-7.5h-123.97c-12.406 0-22.5 10.094-22.5 22.5v63.18c0 12.406 10.094 22.5 22.5 22.5h8.563v19.874l-47.113 35.286c-9.398 7.048-15.01 18.267-15.01 30.01v281.14c0 20.678 16.822 37.5 37.5 37.5h250.619c20.678 0 37.5-16.822 37.5-37.5v-80.761c0-4.143-3.357-7.5-7.5-7.5s-7.5 3.357-7.5 7.5v80.761c0 12.406-10.094 22.5-22.5 22.5h-250.618c-12.406 0-22.5-10.094-22.5-22.5v-281.14c0-7.046 3.368-13.779 9.006-18.007l48.111-36.034 181.384-.058 48.118 36.089c5.636 4.227 9 10.955 9 18v167.71c0 4.142 3.357 7.5 7.5 7.5zm-240.996-244.304v-16.062h171.373v16.062z"/><path d="m131.785 480.89h248.42c4.143 0 7.5-3.357 7.5-7.5v-279.462c0-2.349-1.119-4.624-3-6.039l-41.39-31.04c-1.299-.974-2.877-1.5-4.5-1.5-.001 0-.002 0-.002 0l-165.65.05c-1.621.001-3.198.526-4.495 1.498l-41.38 31c-1.875 1.4-3.003 3.688-3.003 6.023v74.659c0 4.143 3.357 7.5 7.5 7.5s7.5-3.357 7.5-7.5v-67.179l233.42-.011v233.475h-233.42v-133.594c0-4.143-3.357-7.5-7.5-7.5s-7.5 3.357-7.5 7.5v172.12c0 4.142 3.358 7.5 7.5 7.5zm43.879-310.492 160.652-.048 21.389 16.04-203.401.01zm197.041 279.467v16.024h-233.42v-16.024z"/><path d="m191.993 341.768c4.42 2.173 7.441 6.466 8.082 11.483l6.135 48.074c.712 9.998 8.941 17.787 18.862 17.787 9.023 0 16.829-6.516 18.56-15.492.032-.168.06-.337.08-.507l6.704-54.664c1.329-7.609 9.829-8.484 11.017.076l5.835 53.099c1.201 9.97 9.577 17.488 19.482 17.488 10.081 0 18.458-7.648 19.518-17.806l5.737-47.985c.605-5.072 3.633-9.411 8.096-11.604 10.077-4.952 16.589-15.508 16.589-26.892v-49.847c0-26.015-20.769-47.179-46.296-47.179-10.031 0-21.9 4.908-30.762 10.521-2.062 1.143-4.577 1.056-6.563-.226-8.995-6.804-20.1-10.776-31.472-10.296-25.527 0-46.296 21.164-46.296 47.179v49.847c0 11.384 6.512 21.939 16.567 26.881zm-1.692-76.789c0-17.743 14.039-32.179 31.296-32.179 8.278.254 16.556 3.055 23.339 7.899 6.64 4.285 15.058 4.569 21.964.743 6.576-4.348 15.824-8.643 23.494-8.643 17.257 0 31.296 14.436 31.296 32.179v49.847c0 5.709-3.221 10.979-8.205 13.43-9.041 4.443-15.162 13.149-16.374 23.286l-5.698 47.799c-.917 7.25-8.083 7.333-9.243.567l-5.826-53.02c-1.16-10.568-9.94-18.537-20.423-18.537-10.348 0-19.114 7.855-20.393 18.272l-6.665 54.347c-.867 5.787-6.784 5.703-7.743-1.311l-6.165-48.308c-1.28-10.029-7.391-18.645-16.323-23.035l-.126-.063c-4.983-2.449-8.204-7.72-8.204-13.429v-49.844z"/></g></g></g></svg>